<svg xmlns="http://www.w3.org/2000/svg" viewBox="0 0 512 512" width="512" height="512">
  <defs>
    <radialGradient id="g" cx="50%" cy="50%" r="50%">
      <stop offset="0%" stop-color="#F5C840"/>
      <stop offset="100%" stop-color="#C9881A"/>
    </radialGradient>
  </defs>
  <rect width="512" height="512" rx="96" fill="#4A2800"/>
  <circle cx="256" cy="256" r="220" fill="url(#g)" stroke="#E8A820" stroke-width="6"/>
  <path d="M256 60 a196 196 0 0 1 0 392 a98 98 0 0 1 0 -196 a98 98 0 0 0 0 -196 z" fill="#2A1500"/>
  <circle cx="256" cy="158" r="24" fill="#FAF0D7"/>
  <circle cx="256" cy="354" r="24" fill="#2A1500"/>
  <g fill="#2A1500">
    <circle cx="256" cy="36" r="8"/>
    <circle cx="476" cy="256" r="8"/>
    <circle cx="256" cy="476" r="8"/>
    <circle cx="36" cy="256" r="8"/>
    <circle cx="412" cy="100" r="8"/>
    <circle cx="412" cy="412" r="8"/>
    <circle cx="100" cy="412" r="8"/>
    <circle cx="100" cy="100" r="8"/>
  </g>
</svg>
